# xmcd
#
# Track frame offsets: 
#        150
#        12100
#        23917
#        33347
#        47660
#        58485
#        71206
#        84584
#        102242
#        118232
#        128677
#        141299
#        161049
#        181464
#        209583
#        225900
#        240673
#        257603
#        274624
#
# Disc length: 3850 seconds
#
# Revision: 1
# Processed by: cddbd v1.5.2PL0 Copyright (c) Steve Scherf et al.
# Submitted via: ExactAudioCopyFreeDBPlugin 1.0
#
DISCID=100f0813
DTITLE=The Cats - 1994 - The Rest Of
DYEAR=1994
DGENRE=Pop
TTITLE0=What A Crazy Life
TTITLE1=Hopeless Try
TTITLE2=Vive Lamour
TTITLE3=Love Of The Common People
TTITLE4=I Like The Way
TTITLE5=Why Baby Why
TTITLE6=Freedom Bird
TTITLE7=I Walk Through The Fields
TTITLE8=Don't Waste Your Time
TTITLE9=It's Over Now
TTITLE10=Five Little Tears
TTITLE11=Trying To Explain
TTITLE12=I've Been In Love Before
TTITLE13=Missisippi
TTITLE14=Hard To Be Friends
TTITLE15=We Should Be Together
TTITLE16=Cindy
TTITLE17=One More Time
TTITLE18=Sois Ma Femme [Be My Day]
EXTD=
EXTT0=
EXTT1=
EXTT2=
EXTT3=
EXTT4=
EXTT5=
EXTT6=
EXTT7=
EXTT8=
EXTT9=
EXTT10=
EXTT11=
EXTT12=
EXTT13=
EXTT14=
EXTT15=
EXTT16=
EXTT17=
EXTT18=
PLAYORDER=
